# xmcd CD database file
#
# Track frame offsets:
#	150
#	25412
#	50432
#	73125
#	94895
#	113085
#	149277
#	177517
#	199385
#	225325
#	255565
#
# Disc length: 3810 seconds
#
# Revision: 15
# Processed by: cddbd v1.5.2PL0 Copyright (c) Steve Scherf et al.
# Submitted via: CDex 1.79
#
DISCID=9d0ee00b
DTITLE=????? - ??-Time goes around-
DYEAR=1993
DGENRE=JPop
TTITLE0=??
TTITLE1=???
TTITLE2=?????
TTITLE3=??????
TTITLE4=?????
TTITLE5=?????????
TTITLE6=????
TTITLE7=?????
TTITLE8=??
TTITLE9=????? 1st.
TTITLE10=?????
EXTD=YEAR: 1993
EXTT0=
EXTT1=
EXTT2=
EXTT3=
EXTT4=
EXTT5=
EXTT6=
EXTT7=
EXTT8=
EXTT9=
EXTT10=
PLAYORDER=
